<svg xmlns="http://www.w3.org/2000/svg" width="65" height="63" viewBox="0 0 65 63">
  <metadata><?xpacket begin="﻿" id="W5M0MpCehiHzreSzNTczkc9d"?>
<x:xmpmeta xmlns:x="adobe:ns:meta/" x:xmptk="Adobe XMP Core 5.6-c138 79.159824, 2016/09/14-01:09:01        ">
   <rdf:RDF xmlns:rdf="http://www.w3.org/1999/02/22-rdf-syntax-ns#">
      <rdf:Description rdf:about=""/>
   </rdf:RDF>
</x:xmpmeta>
                                                                                                    
                                                                                                    
                                                                                                    
                                                                                                    
                                                                                                    
                                                                                                    
                                                                                                    
                                                                                                    
                                                                                                    
                                                                                                    
                                                                                                    
                                                                                                    
                                                                                                    
                                                                                                    
                                                                                                    
                                                                                                    
                                                                                                    
                                                                                                    
                                                                                                    
                                                                                                    
                           
<?xpacket end="w"?></metadata>
<defs>
    <style>
      .cls-1 {
        fill: #ccc;
        fill-rule: evenodd;
      }
    </style>
  </defs>
  <path class="cls-1" d="M802.55,1014.38a2.116,2.116,0,1,1-2.116-2.09A2.1,2.1,0,0,1,802.55,1014.38Zm5.445,37.4a2.245,2.245,0,0,1-2.242,2.22H745.219a2.239,2.239,0,0,1-2.222-2.22c0-11.25,14.386-15.74,20.561-17.16a0.152,0.152,0,0,0,.126-0.16v-2.38a18.513,18.513,0,0,1-3.144-6.19,12.069,12.069,0,0,1-2.726-5.41c-0.63-2.18-1.26-5.36.471-7.62l0.08-.09c-0.113-.66-0.2-1.31-0.252-1.97-0.783-5.13-.18-8.96,1.8-11.353a6.581,6.581,0,0,1,4.311-2.408c1.008-3.436,5.929-6.787,10.393-5.89,4.331,0.916,13.371-.092,13.484-0.105a0.453,0.453,0,0,1,.318.092,0.417,0.417,0,0,1,.153.294,4.369,4.369,0,0,1-1.274,3.2c7.23,4.758,6.188,14.149,5.353,18.119l0.073,0.1c1.731,2.27,1.1,5.43.477,7.62-0.385,1.35-1.1,3.85-2.719,5.42a18.332,18.332,0,0,1-3.144,6.14v2.42a0.175,0.175,0,0,0,.126.17C793.629,1036.04,808,1040.53,808,1051.78Zm-22.776-13.31a4.574,4.574,0,0,1-2.122-2.51,15.051,15.051,0,0,1-3.237,1.6,13.2,13.2,0,0,1-8.728,0,15.043,15.043,0,0,1-3.25-1.59,4.628,4.628,0,0,1-2.116,2.48A12.286,12.286,0,0,0,785.219,1038.47Zm1.99-15.17c0.232,0,1.061-.35,2.076-3.92,0.8-2.78.458-3.79,0.192-4.14a1.049,1.049,0,0,0-.961-0.33,0.413,0.413,0,0,1-.445-0.55v-0.09a5.583,5.583,0,0,0-1.87-6.16c-2.554.56-6.739,0.71-12.363-1.66-2.746-1.16-5.054-1.2-6.845-.12-3.594,2.16-4.085,8.14-4.092,8.2a0.414,0.414,0,0,1-.451.38h-0.192a0.946,0.946,0,0,0-.789.34c-0.272.36-.6,1.36,0.192,4.14,1.021,3.55,1.85,3.89,2.076,3.93a0.42,0.42,0,0,1,.391.35c0.584,3.71,3.429,8.51,8.317,10.18a9.146,9.146,0,0,0,6.023,0,13.582,13.582,0,0,0,8.336-10.17,0.42,0.42,0,0,1,.418-0.38h-0.013Zm15.659-17.71A7.446,7.446,0,0,0,808,998.3a7.586,7.586,0,0,0-7.574-7.278h-0.046a7.544,7.544,0,0,0-6.779,4.241,2.066,2.066,0,0,0,.767,2.844,2.123,2.123,0,0,0,2.882-.757,1.977,1.977,0,0,0,.138-0.281,3.353,3.353,0,0,1,3.011-1.885h0a3.429,3.429,0,0,1,3.4,3.227,3.317,3.317,0,0,1-2.288,3.273,4.585,4.585,0,0,0-3.19,4.29v1.77a2.111,2.111,0,0,0,4.211,0v-1.79A0.5,0.5,0,0,1,802.868,1005.59Z" transform="translate(-743 -991)"/>
</svg>
